<svg enable-background="new 0 0 543.6 132" viewBox="0 0 543.6 132" xmlns="http://www.w3.org/2000/svg"><path d="m0 0h543.6v132h-543.6z" fill="#fff"/><path d="m7.2 7.1h529.2v117.9h-529.2z"/><path d="m127.8 15.2h400.3v101.7h-400.3z" fill="#0054a1"/><path d="m15.5 15.2h104v101.8h-104z" fill="#fff"/><path d="m99.6 31.6s-1-1-2.1-1.8c-1.3-.9-4.2-1.2-4.2-1.2h-37.1s-1.8.4-3.5 1.1-2.5 1.6-2.5 1.6l-24 23 8.3 7.6 35.9 33.8 7.9 8 24-23s.9-.7 1.7-2.4 1.1-3.4 1.1-3.4v-35.7s-.3-2.7-1.3-4c-.8-1.1-1.9-2-1.9-2z" fill="#fff"/><path d="m39.2 60.8-7.4-6.7 20.8-20s.7-.8 2.2-1.4 3.1-1 3.1-1h33s2.5.3 3.7 1.1c1 .7 1.9 1.6 1.9 1.6l-26.4 25.6s-2.3-1.9-4.9-3.2c-2.5-1.3-6.2-2.4-10.5-2.4s-6.5.7-9.5 2.2c-3.1 1.5-6 4.2-6 4.2z" fill="#0054a1"/><path d="m71.1 90.8 7 7.1 20.8-20s.8-.6 1.5-2.1 1-3 1-3v-31.7s-.3-2.4-1.1-3.6c-.7-1-1.7-1.8-1.7-1.8l-25.9 26.2s1.3 1.4 2.6 3.9c1.3 2.4 2.5 6 2.5 10.1 0 4.2-.7 6.2-2.3 9.2-1.6 2.9-4.4 5.7-4.4 5.7z" fill="#a1a5a7"/><path d="m34.8 76.5c0-10.7 9-19.3 20.1-19.3s20.1 8.6 20.1 19.3-9 19.3-20.1 19.3-20.1-8.6-20.1-19.3z"/><g fill="#fff"><path d="m174.3 88.5h-14.3v-45.6h-14.1v-8.4h42.6v8.4h-14.2z"/><path clip-rule="evenodd" d="m226.8 84.1c-1.6 1.7-3.8 3.1-6.4 4-2.7.9-5.8 1.4-9.3 1.4-1.8 0-3.4-.1-4.6-.2-1.3-.1-3.3-.6-6.2-1.4s-5.2-2.8-6.8-6-2.4-7-2.4-11.5c0-3.3.3-6.3 1-9.1s2.1-5.2 4.4-7.3 4.8-3.3 7.6-3.9 5.5-.8 8.1-.8c2.7 0 5.4.3 8.1.9s5 2 6.8 4.1 3 4.4 3.4 6.7.7 4.9.7 7.7c0 2.9-.3 5.7-.8 8.3-.5 2.7-1.7 5-3.6 7.1zm-8.7-20.6c0-2-.5-3.9-1.4-5.7s-2.7-2.7-5.3-2.7c-1.2 0-2.4.3-3.6 1s-2 1.7-2.5 3-.8 2.7-1 4-.3 2.5-.3 3.7c-.1 1.2-.1 2.2-.1 2.9l.2 5.2c0 2 .5 4 1.4 5.9 1 1.9 2.8 2.9 5.5 2.9 1 0 2.2-.3 3.3-.9 1.2-.6 2-1.6 2.5-3.1.5-1.4.9-3.1 1.1-4.9s.3-3.9.3-6.2z" fill-rule="evenodd"/><path clip-rule="evenodd" d="m238.2 50.3h12.5v4.7c.7-.9 1.3-1.6 1.8-2s1.6-1.1 3.3-2 4.1-1.4 7-1.4c2.2 0 4.3.4 6.3 1.1 2 .8 3.6 2.1 4.7 3.9s1.9 3.8 2.3 6 .7 5.1.7 8.6c0 4.7-.6 8.6-1.7 11.7-1.2 3.1-2.8 5.2-4.9 6.1-2.1 1-3.8 1.6-5 1.9s-2.5.4-3.9.4c-2.9 0-5.1-.4-6.6-1.3s-2.9-2-4-3.4v19.7h-12.5zm12.5 24.9c0 2.2.6 4 1.7 5.5s2.6 2.2 4.6 2.2c1 0 2.1-.3 3.2-.8s2-1.6 2.8-3.3 1.1-4.8 1.1-9.3c0-1.3 0-2.6-.1-3.9s-.3-2.8-.6-4.4-1-2.9-1.9-3.8c-1-.9-2.3-1.4-4-1.4-1.2 0-2.3.2-3.2.7s-1.6 1.2-2.2 2c-.5.9-.9 1.8-1.1 2.8s-.3 2.3-.3 3.7z" fill-rule="evenodd"/><path d="m354.9 70.3c0 2.8-.5 5.5-1.6 8.3s-3 5.1-5.8 6.8c-2.7 1.7-5.5 2.9-8.3 3.4-2.8.6-5.9.9-9.4.9-3.2 0-6.5-.4-9.8-1.1-3.3-.8-6.1-2.5-8.5-5.2-2.3-2.7-3.8-5.8-4.4-9.5-.6-3.6-.9-7.5-.9-11.6 0-9.3 1.8-16.5 5.3-21.5 3.5-5.1 10.4-7.6 20.4-7.6 9.5 0 15.6 2 18.2 5.9 2.7 3.9 4 8.5 4 13.6h-13.8c0-3.9-.6-7-1.9-9.1s-3.5-3.2-6.8-3.2c-4.2 0-7 1.9-8.5 5.7s-2.2 9.4-2.2 16.8c0 6.4.7 11.3 2 14.6s4 5 8.1 5c3.8 0 6.3-1.3 7.6-3.9s2-5.4 2-8.4h14.3z"/><path clip-rule="evenodd" d="m383.6 61.8c0-1.3 0-2.2-.1-2.8s-.3-1.2-.7-1.9-1-1.2-1.8-1.5c-.8-.4-1.7-.5-2.8-.5-1.3 0-2.3.2-3.1.6s-1.4.9-1.9 1.5-.8 1.4-1 2.3-.3 1.8-.3 2.9h-12.1c0-1.6.1-2.8.2-3.6s.7-2.1 1.7-3.9 3.1-3.1 6.3-4.1 6.9-1.5 11-1.5c2.5 0 4.7.2 6.5.5 1.9.3 3.3.6 4.4 1s2.1 1 3.2 1.9c1 .9 1.8 2 2.3 3.4s.8 3.5.8 6.4v18.4 2.5c0 .8.1 1.5.3 2.3s.3 1.3.5 1.6.5.6.8.8v.5h-10.4c-1.7 0-2.8-.2-3.4-.7s-.9-1.7-.9-3.6c-1.7 1.8-3.7 3.1-5.9 4s-4.6 1.3-7.1 1.3c-1.8 0-3.4-.2-4.9-.7s-2.7-1.2-3.6-2.3c-.9-1-1.7-2.2-2.2-3.7-.5-1.4-.7-3-.7-4.8 0-1.1.2-2.5.5-4.2.4-1.7 1.5-3.2 3.4-4.4s3.9-2.1 5.9-2.6c2.1-.5 5-.9 8.8-1.3l6.2-.6v-3.2zm0 8c-1.7 0-2.9.1-3.6.2s-1.7.3-3.2.7-2.8 1-3.8 2-1.6 2.4-1.6 4.3c0 .9.2 1.9.5 2.9s.9 1.7 1.8 2.3c.9.5 1.9.8 3.1.8.9 0 1.8-.1 2.5-.2.7-.2 1.5-.6 2.3-1.3s1.3-1.6 1.6-2.7c.3-1 .4-2.1.4-3.3z" fill-rule="evenodd"/><path clip-rule="evenodd" d="m417.1 88.5h-12.6v-54h12.6v20.6c1.9-1.9 3.9-3.4 5.9-4.2 2.1-.9 4.3-1.3 6.7-1.3 2.3 0 4.6.5 6.8 1.6s3.9 3 5 5.8 1.6 6.7 1.6 11.7c0 1.7-.1 3.3-.2 4.6s-.3 2.7-.5 4.1-.5 2.6-.9 3.7-1.1 2.3-2.1 3.7-2.5 2.5-4.6 3.4c-2 .9-4.2 1.3-6.6 1.3-2.1 0-4-.3-5.5-.8-1.5-.6-2.8-1.4-4-2.4l-1.7-2v4.2zm0-14.7c0 1.7.1 2.9.2 3.6s.6 1.8 1.4 3.3c.9 1.4 2.5 2.1 4.8 2.1 2.1 0 3.7-.7 4.8-2.2s1.7-3.4 1.8-5.9c.2-2.5.2-4.5.2-6 0-4.3-.4-7.6-1.1-9.7-.8-2.1-2.4-3.2-5-3.2-1.2 0-2.5.3-3.8 1s-2.2 1.7-2.7 3.1-.7 3-.7 4.9v9z" fill-rule="evenodd"/><path d="m462.9 88.5h-12.7v-54h12.7z"/><path clip-rule="evenodd" d="m508.7 76.3c-.2 2.1-.7 3.9-1.4 5.6-.7 1.6-2.1 3.1-4.1 4.4-2.1 1.3-4.3 2.1-6.7 2.5s-4.7.6-6.9.6c-3.3 0-6.2-.4-8.6-1.1s-4.4-1.8-6-3.2-2.9-3.3-3.8-5.8-1.3-5.6-1.3-9.3c0-5.1 1.2-9.9 3.6-14.2s7.9-6.5 16.6-6.5c1.6 0 3.1.1 4.3.2 1.3.2 3 .6 5.3 1.4s4.1 2.1 5.5 3.9c1.4 1.9 2.2 3.7 2.6 5.5.3 1.8.5 3.2.6 4.3.1 1 .1 2.1.1 3.1v2.5h-25.8c0 4.1.4 7.3 1.3 9.7.8 2.4 2.8 3.7 5.8 3.7 2 0 3.4-.5 4.3-1.5s1.5-2 1.8-3 .4-2 .4-2.8zm-12.4-11.4c0-2.7-.4-5-1.2-7-.8-1.9-2.5-2.9-5.1-2.9-2.2 0-3.9.9-5.2 2.7s-2 4.2-2 7.2z" fill-rule="evenodd"/><path d="m47.4 65.3c0-2.3 1.9-4.1 4.3-4.1s4.3 1.8 4.3 4.1-1.9 4.1-4.3 4.1-4.3-1.9-4.3-4.1z"/><path d="m38.7 73.4c0-2.3 1.9-4.1 4.3-4.1s4.3 1.8 4.3 4.1-1.9 4.1-4.3 4.1-4.3-1.8-4.3-4.1z"/><path d="m42.1 84.6c0-2.3 1.9-4.1 4.3-4.1s4.3 1.8 4.3 4.1-1.9 4.1-4.3 4.1-4.3-1.9-4.3-4.1z"/><path d="m53.7 87.8c0-2.3 1.9-4.1 4.3-4.1s4.3 1.8 4.3 4.1-1.9 4.1-4.3 4.1c-2.3 0-4.3-1.9-4.3-4.1z"/><path d="m50.7 76.5c0-2.3 1.9-4.1 4.3-4.1s4.3 1.8 4.3 4.1-1.9 4.1-4.3 4.1-4.3-1.8-4.3-4.1z"/><path d="m59.4 68.3c0-2.3 1.9-4.1 4.3-4.1s4.3 1.8 4.3 4.1-1.9 4.1-4.3 4.1-4.3-1.8-4.3-4.1z"/><path d="m62.5 79.5c0-2.3 1.9-4.1 4.3-4.1s4.3 1.8 4.3 4.1-1.9 4.1-4.3 4.1-4.3-1.8-4.3-4.1z"/></g></svg>